<svg preserveAspectRatio="none" width="100%" height="100%" overflow="visible" style="display: block;" viewBox="0 0 30 24" fill="none" xmlns="http://www.w3.org/2000/svg">
<g id="Frame">
<g clip-path="url(#clip0_1_788)">
<path id="Vector" d="M18.4125 0.05625C17.6156 -0.173438 16.7859 0.290625 16.5563 1.0875L10.5563 22.0875C10.3266 22.8844 10.7906 23.7141 11.5875 23.9438C12.3844 24.1734 13.2141 23.7094 13.4437 22.9125L19.4437 1.9125C19.6734 1.11563 19.2094 0.285938 18.4125 0.05625ZM22.1906 5.68594C21.6047 6.27188 21.6047 7.22344 22.1906 7.80938L26.3766 12L22.1859 16.1906C21.6 16.7766 21.6 17.7281 22.1859 18.3141C22.7719 18.9 23.7234 18.9 24.3094 18.3141L29.5594 13.0641C30.1453 12.4781 30.1453 11.5266 29.5594 10.9406L24.3094 5.69062C23.7234 5.10469 22.7719 5.10469 22.1859 5.69062L22.1906 5.68594ZM7.81406 5.68594C7.22813 5.1 6.27656 5.1 5.69062 5.68594L0.440625 10.9359C-0.145313 11.5219 -0.145313 12.4734 0.440625 13.0594L5.69062 18.3094C6.27656 18.8953 7.22813 18.8953 7.81406 18.3094C8.4 17.7234 8.4 16.7719 7.81406 16.1859L3.62344 12L7.81406 7.80938C8.4 7.22344 8.4 6.27188 7.81406 5.68594Z" fill="var(--fill-0, #FF00FF)"/>
</g>
</g>
<defs>
<clipPath id="clip0_1_788">
<path d="M0 0H30V24H0V0Z" fill="white"/>
</clipPath>
</defs>
</svg>
