<svg preserveAspectRatio="none" width="100%" height="100%" overflow="visible" style="display: block;" viewBox="0 0 27 24" fill="none" xmlns="http://www.w3.org/2000/svg">
<g id="Frame">
<path id="Vector" d="M9.75 3.75C9.75 2.50781 10.7578 1.5 12 1.5H15C16.2422 1.5 17.25 2.50781 17.25 3.75V6.75C17.25 7.99219 16.2422 9 15 9H14.625V10.875H21.75C23.1984 10.875 24.375 12.0516 24.375 13.5V15H24.75C25.9922 15 27 16.0078 27 17.25V20.25C27 21.4922 25.9922 22.5 24.75 22.5H21.75C20.5078 22.5 19.5 21.4922 19.5 20.25V17.25C19.5 16.0078 20.5078 15 21.75 15H22.125V13.5C22.125 13.2937 21.9563 13.125 21.75 13.125H14.625V15H15C16.2422 15 17.25 16.0078 17.25 17.25V20.25C17.25 21.4922 16.2422 22.5 15 22.5H12C10.7578 22.5 9.75 21.4922 9.75 20.25V17.25C9.75 16.0078 10.7578 15 12 15H12.375V13.125H5.25C5.04375 13.125 4.875 13.2937 4.875 13.5V15H5.25C6.49219 15 7.5 16.0078 7.5 17.25V20.25C7.5 21.4922 6.49219 22.5 5.25 22.5H2.25C1.00781 22.5 0 21.4922 0 20.25V17.25C0 16.0078 1.00781 15 2.25 15H2.625V13.5C2.625 12.0516 3.80156 10.875 5.25 10.875H12.375V9H12C10.7578 9 9.75 7.99219 9.75 6.75V3.75Z" fill="var(--fill-0, white)"/>
</g>
</svg>
