<svg preserveAspectRatio="none" width="100%" height="100%" overflow="visible" style="display: block;" viewBox="0 0 30 30" fill="none" xmlns="http://www.w3.org/2000/svg">
<g id="Frame">
<g clip-path="url(#clip0_1_785)">
<path id="Vector" d="M9.17578 22.5527L7.36523 20.7422C6.86719 20.2441 6.69141 19.5234 6.91406 18.8555C7.08984 18.334 7.32422 17.6543 7.60547 16.875H1.40625C0.902344 16.875 0.433594 16.6055 0.181641 16.166C-0.0703125 15.7266 -0.0644531 15.1875 0.193359 14.7539L3.26953 9.56836C4.03125 8.28516 5.4082 7.5 6.89648 7.5H11.7188C11.8594 7.26562 12 7.04883 12.1406 6.83789C16.9395 -0.240235 24.0879 -0.474609 28.3535 0.310547C29.0332 0.433594 29.5605 0.966797 29.6895 1.64648C30.4746 5.91797 30.2344 13.0605 23.1621 17.8594C22.957 18 22.7344 18.1406 22.5 18.2813V23.1035C22.5 24.5918 21.7148 25.9746 20.4316 26.7305L15.2461 29.8066C14.8125 30.0645 14.2734 30.0703 13.834 29.8184C13.3945 29.5664 13.125 29.1035 13.125 28.5938V22.3125C12.2988 22.5996 11.5781 22.834 11.0332 23.0098C10.377 23.2207 9.66211 23.0391 9.16992 22.5527H9.17578ZM22.5 9.84375C23.1216 9.84375 23.7177 9.59682 24.1573 9.15728C24.5968 8.71774 24.8438 8.1216 24.8438 7.5C24.8438 6.8784 24.5968 6.28226 24.1573 5.84272C23.7177 5.40318 23.1216 5.15625 22.5 5.15625C21.8784 5.15625 21.2823 5.40318 20.8427 5.84272C20.4032 6.28226 20.1563 6.8784 20.1563 7.5C20.1563 8.1216 20.4032 8.71774 20.8427 9.15728C21.2823 9.59682 21.8784 9.84375 22.5 9.84375Z" fill="var(--fill-0, #FFFF00)"/>
</g>
</g>
<defs>
<clipPath id="clip0_1_785">
<path d="M0 0H30V30H0V0Z" fill="white"/>
</clipPath>
</defs>
</svg>
