<svg preserveAspectRatio="none" width="100%" height="100%" overflow="visible" style="display: block;" viewBox="0 0 30 24" fill="none" xmlns="http://www.w3.org/2000/svg">
<g id="Frame">
<g clip-path="url(#clip0_1_821)">
<path id="Vector" d="M14.4609 6.34219C14.7938 6.04687 14.925 5.58281 14.7516 5.17031C14.6438 4.92187 14.5266 4.67812 14.3953 4.44375L14.25 4.19062C14.1094 3.95625 13.9547 3.72656 13.7906 3.50625C13.5234 3.15 13.0547 3.03281 12.6328 3.17344L11.3109 3.60937C10.8094 3.19687 10.2328 2.85937 9.61406 2.62969L9.32812 1.27031C9.23906 0.834375 8.90156 0.4875 8.46094 0.435938C8.15156 0.39375 7.8375 0.375 7.51875 0.375H7.48594C7.16719 0.375 6.85313 0.39375 6.54375 0.43125C6.10313 0.482812 5.76563 0.834375 5.67656 1.26562L5.39063 2.62969C4.76719 2.86406 4.19531 3.19687 3.69375 3.60937L2.36719 3.17812C1.94531 3.0375 1.47656 3.15469 1.20937 3.51094C1.04531 3.73125 0.890625 3.96094 0.745312 4.19531L0.604687 4.44375C0.473437 4.67812 0.35625 4.92187 0.248438 5.175C0.075 5.58281 0.20625 6.04687 0.539062 6.34687L1.57969 7.275C1.52813 7.58906 1.5 7.91719 1.5 8.25C1.5 8.58281 1.52813 8.91094 1.57969 9.22969L0.539062 10.1578C0.20625 10.4531 0.075 10.9172 0.248438 11.3297C0.35625 11.5781 0.473437 11.8219 0.604687 12.0609L0.745312 12.3047C0.885937 12.5437 1.04062 12.7687 1.20937 12.9891C1.47656 13.3453 1.94531 13.4625 2.36719 13.3219L3.68906 12.8859C4.19063 13.2984 4.76719 13.6359 5.38594 13.8656L5.67188 15.2297C5.76094 15.6656 6.09844 16.0125 6.53906 16.0641C6.85312 16.1016 7.17187 16.1203 7.49531 16.1203C7.81875 16.1203 8.1375 16.1016 8.45156 16.0641C8.89219 16.0125 9.22969 15.6609 9.31875 15.2297L9.60469 13.8656C10.2281 13.6312 10.8 13.2984 11.3016 12.8859L12.6234 13.3219C13.0453 13.4625 13.5141 13.3453 13.7813 12.9891C13.9453 12.7687 14.1 12.5437 14.2406 12.3047L14.3859 12.0516C14.5172 11.8172 14.6344 11.5734 14.7422 11.325C14.9156 10.9172 14.7844 10.4531 14.4516 10.1531L13.4109 9.225C13.4625 8.90625 13.4906 8.57812 13.4906 8.24531C13.4906 7.9125 13.4625 7.58437 13.4109 7.26562L14.4516 6.3375L14.4609 6.34219ZM5.25 8.25C5.25 7.65326 5.48705 7.08097 5.90901 6.65901C6.33097 6.23705 6.90326 6 7.5 6C8.09674 6 8.66903 6.23705 9.09099 6.65901C9.51295 7.08097 9.75 7.65326 9.75 8.25C9.75 8.84674 9.51295 9.41903 9.09099 9.84099C8.66903 10.2629 8.09674 10.5 7.5 10.5C6.90326 10.5 6.33097 10.2629 5.90901 9.84099C5.48705 9.41903 5.25 8.84674 5.25 8.25ZM23.6578 23.4609C23.9531 23.7937 24.4172 23.925 24.8297 23.7516C25.0781 23.6437 25.3219 23.5266 25.5563 23.3953L25.8094 23.25C26.0437 23.1094 26.2734 22.9547 26.4938 22.7906C26.85 22.5234 26.9672 22.0547 26.8266 21.6328L26.3906 20.3109C26.8031 19.8094 27.1406 19.2328 27.3703 18.6141L28.7344 18.3281C29.1703 18.2391 29.5172 17.9016 29.5687 17.4609C29.6062 17.1469 29.625 16.8281 29.625 16.5047C29.625 16.1812 29.6062 15.8625 29.5687 15.5484C29.5172 15.1078 29.1656 14.7703 28.7344 14.6812L27.3703 14.3906C27.1359 13.7672 26.8031 13.1953 26.3906 12.6937L26.8266 11.3719C26.9672 10.95 26.85 10.4812 26.4938 10.2141C26.2734 10.05 26.0437 9.89531 25.8094 9.75L25.5609 9.60937C25.3266 9.47812 25.0828 9.36094 24.8297 9.25312C24.4219 9.07969 23.9578 9.21094 23.6578 9.54375L22.7297 10.5844C22.4109 10.5328 22.0828 10.5047 21.75 10.5047C21.4172 10.5047 21.0891 10.5328 20.7703 10.5844L19.8422 9.54375C19.5469 9.21094 19.0828 9.07969 18.6703 9.25312C18.4219 9.36094 18.1781 9.47812 17.9391 9.60937L17.6953 9.75C17.4563 9.89062 17.2313 10.0453 17.0109 10.2141C16.6547 10.4812 16.5375 10.95 16.6781 11.3719L17.1141 12.6937C16.7016 13.1953 16.3641 13.7719 16.1344 14.3906L14.7703 14.6719C14.3344 14.7609 13.9875 15.0984 13.9359 15.5391C13.8984 15.8531 13.8797 16.1719 13.8797 16.4953C13.8797 16.8187 13.8984 17.1375 13.9359 17.4516C13.9875 17.8922 14.3391 18.2297 14.7703 18.3187L16.1344 18.6047C16.3688 19.2281 16.7016 19.8 17.1141 20.3016L16.6781 21.6234C16.5375 22.0453 16.6547 22.5141 17.0109 22.7812C17.2313 22.9453 17.4563 23.1 17.6953 23.2406L17.9484 23.3859C18.1828 23.5172 18.4266 23.6344 18.675 23.7422C19.0828 23.9156 19.5469 23.7844 19.8469 23.4516L20.775 22.4109C21.0938 22.4625 21.4219 22.4906 21.7547 22.4906C22.0875 22.4906 22.4156 22.4625 22.7344 22.4109L23.6625 23.4516L23.6578 23.4609ZM21.75 14.25C22.0455 14.25 22.3381 14.3082 22.611 14.4213C22.884 14.5343 23.1321 14.7001 23.341 14.909C23.5499 15.1179 23.7157 15.366 23.8287 15.639C23.9418 15.9119 24 16.2045 24 16.5C24 16.7955 23.9418 17.0881 23.8287 17.361C23.7157 17.634 23.5499 17.8821 23.341 18.091C23.1321 18.2999 22.884 18.4657 22.611 18.5787C22.3381 18.6918 22.0455 18.75 21.75 18.75C21.4545 18.75 21.1619 18.6918 20.889 18.5787C20.616 18.4657 20.3679 18.2999 20.159 18.091C19.9501 17.8821 19.7843 17.634 19.6713 17.361C19.5582 17.0881 19.5 16.7955 19.5 16.5C19.5 16.2045 19.5582 15.9119 19.6713 15.639C19.7843 15.366 19.9501 15.1179 20.159 14.909C20.3679 14.7001 20.616 14.5343 20.889 14.4213C21.1619 14.3082 21.4545 14.25 21.75 14.25Z" fill="var(--fill-0, #FFFF00)"/>
</g>
</g>
<defs>
<clipPath id="clip0_1_821">
<path d="M0 0H30V24H0V0Z" fill="white"/>
</clipPath>
</defs>
</svg>
