<svg preserveAspectRatio="none" width="100%" height="100%" overflow="visible" style="display: block;" viewBox="0 0 18 16" fill="none" xmlns="http://www.w3.org/2000/svg">
<g id="Frame">

<path id="Vector" d="M0.29375 2.70625C-0.096875 2.31562 -0.096875 1.68438 0.29375 1.29375C0.684375 0.903125 1.31875 0.903125 1.70938 1.29375L7.70938 7.29375C8.1 7.68438 8.1 8.31875 7.70938 8.70938L1.70938 14.7094C1.31875 15.1 0.684375 15.1 0.29375 14.7094C-0.096875 14.3188 -0.096875 13.6844 0.29375 13.2938L5.58438 8L0.29375 2.70625ZM8 13H17C17.5531 13 18 13.4469 18 14C18 14.5531 17.5531 15 17 15H8C7.44688 15 7 14.5531 7 14C7 13.4469 7.44688 13 8 13Z" fill="var(--fill-0, #FFFF00)"/>
</g>
</svg>
